<svg id="Icons" xmlns="http://www.w3.org/2000/svg" viewBox="0 0 512 512"><defs><style>.cls-1{fill:#14a36d;}.cls-2{fill:#15be79;}.cls-3{fill:#6b250c;}.cls-4{fill:#7a2b13;}.cls-5{fill:#8c4735;}.cls-6{fill:#a05740;}.cls-7{fill:#b76049;}.cls-8{fill:#c2aacf;}.cls-9{fill:#decee5;}.cls-10{fill:#f4e6f4;}.cls-11{fill:#aacfe5;}.cls-12{fill:#cde6f6;}.cls-13{fill:#eef9ff;}.cls-14{fill:#f39e22;}.cls-15{fill:#f9c744;}.cls-16{fill:#fff;}</style></defs><title>019-beer-export</title><circle class="cls-1" cx="256" cy="256" r="256"/><circle class="cls-2" cx="256" cy="256" r="202.37"/><path class="cls-3" d="M500.77,331.2a254.41,254.41,0,0,1-10,27.06q-3,6.94-6.46,13.67-2.69,5.28-5.6,10.41a30.55,30.55,0,0,0-15.91-4.45H378.26a30.62,30.62,0,0,0-30.61,30.63v16.57A10.65,10.65,0,0,1,337,435.74H317.22a10.64,10.64,0,0,1-10.5-8.9,10.08,10.08,0,0,1-.15-1.75V331.2Z"/><path class="cls-4" d="M500.77,331.2a254.41,254.41,0,0,1-10,27.06q-3,6.94-6.46,13.67A39.61,39.61,0,0,0,469.22,369H371.84c-19.49,0-35.28,13.71-35.28,30.62V416.2c0,5.88-5.5,10.64-12.27,10.64H306.72a10.08,10.08,0,0,1-.15-1.75V331.2Z"/><path class="cls-3" d="M500.77,331.2a254.41,254.41,0,0,1-10,27.06,685.9,685.9,0,0,1-70.23,3.41c-47.89,0-85.42-4.27-114-9.78V331.2Z"/><path class="cls-5" d="M512,256a255.85,255.85,0,0,1-11.23,75.2q-1,3.41-2.18,6.76a671.29,671.29,0,0,1-78.06,4.27c-96.81,0-151.32-17.4-174.67-27.41a22.79,22.79,0,0,1-13.79-21V97a22.79,22.79,0,0,1,13.79-21c22.19-9.51,72.53-25.72,160.51-27.28A255.67,255.67,0,0,1,512,256Z"/><path class="cls-6" d="M512,256a256.55,256.55,0,0,1-4.7,49.05,654.31,654.31,0,0,1-86.77,5.36c-96.81,0-151.32-17.4-174.67-27.41a22.78,22.78,0,0,1-13.79-20.95V97a22.79,22.79,0,0,1,13.79-21c22.19-9.51,72.53-25.72,160.51-27.28A255.67,255.67,0,0,1,512,256Z"/><path class="cls-5" d="M466.38,110.11q-3.63-5.22-7.51-10.25-18.08-.27-38.64-.28c-126,0-180,8.41-188.16,9.82v11.53a5.44,5.44,0,0,0,1.06-.1c.53-.1,53.85-9.82,187.1-9.82q25.45,0,47.07.43Z"/><path class="cls-4" d="M466.38,110.11q-21.25-.37-46.15-.4c-126,0-180,8.42-188.16,9.82v11.54a5.45,5.45,0,0,0,1.06-.11c.53-.1,53.85-9.82,187.1-9.82q29.43,0,53.75.57-3.21-5.22-6.68-10.27Z"/><path class="cls-5" d="M511.71,268.17c.16-3.36.26-6.74.28-10.14-24.89,1-55.1,1.75-91.16,1.75-66.93,0-113.71-2.44-143.84-4.87S233.39,250,233.13,250a5.44,5.44,0,0,0-1.06-.1v11.53c8.18,1.4,62.26,9.82,188.76,9.82,35.92,0,66-.69,90.82-1.7Z"/><path class="cls-4" d="M511.71,268.17c-24.84,1-54.95,1.74-90.88,1.74-66.93,0-113.71-2.43-143.84-4.87s-43.6-4.9-43.86-5a5.42,5.42,0,0,0-1.06-.09v11.52c8.18,1.41,62.26,9.82,188.76,9.82,35.57,0,65.41-.67,90.09-1.66q.46-5.06.73-10.17Z"/><path class="cls-5" d="M503.34,189.74q-1.36-5.12-2.94-10.14H232.07V191H503.68Z"/><path class="cls-4" d="M503.34,189.74H232.07v11.43h274Q505,196.06,503.68,191Z"/><ellipse class="cls-7" cx="442.02" cy="143.21" rx="16.13" ry="35.26" transform="translate(282.44 579.59) rotate(-87.86)"/><path class="cls-7" d="M439.39,77.39c-6,5.1-18.08,8.31-31.93,7.79-19.47-.73-35-8.53-34.64-17.44s16.37-15.53,35.84-14.8q1.79.06,3.51.21A255.59,255.59,0,0,1,439.39,77.39Z"/><path class="cls-8" d="M323.92,50.74V340.16A9.11,9.11,0,0,1,312.49,349L296,344.62a9.1,9.1,0,0,1-6.78-8.8V55.09a9.1,9.1,0,0,1,6.78-8.8l16.48-4.35A9.11,9.11,0,0,1,323.92,50.74Z"/><path class="cls-9" d="M323.92,50.74V301.29a9.11,9.11,0,0,1-11.43,8.81L296,305.75a9.09,9.09,0,0,1-6.78-8.8V55.09a9.1,9.1,0,0,1,6.78-8.8l16.48-4.35A9.11,9.11,0,0,1,323.92,50.74Z"/><ellipse class="cls-10" cx="303.33" cy="113.76" rx="9.59" ry="26.96"/><ellipse class="cls-10" cx="303.33" cy="162.87" rx="6.31" ry="13.22"/><rect class="cls-8" x="202.08" y="209.26" width="29.99" height="35.62"/><rect class="cls-9" x="202.08" y="209.26" width="29.99" height="23.57"/><path class="cls-8" d="M202.08,209.26v44a7.48,7.48,0,0,1-7.48,7.49h-18a7.5,7.5,0,0,1-7.35-6l-.65-3.34-7.71-39.07a15.81,15.81,0,0,1,15.52-18.87h9.84a15.8,15.8,0,0,1,15.81,15.81Z"/><path class="cls-9" d="M192.71,199.88v44a7.49,7.49,0,0,1-7.49,7.49h-16.6l-7.71-39.07a15.81,15.81,0,0,1,15.52-18.87h9.84a15.68,15.68,0,0,1,5.46,1A15.46,15.46,0,0,1,192.71,199.88Z"/><ellipse class="cls-10" cx="171.99" cy="212.83" rx="6.77" ry="11.88" transform="translate(-29.17 27.32) rotate(-8.38)"/><ellipse class="cls-10" cx="176.51" cy="236.32" rx="4.07" ry="8.78" transform="translate(-32.54 28.23) rotate(-8.38)"/><path class="cls-11" d="M79.73,306.13,68,349.79a8.82,8.82,0,0,0,6.24,10.8l26.64,7.14,3-11.27L83.68,351A3.78,3.78,0,0,1,81,346.41l8.27-30.86a3.78,3.78,0,0,1,4.63-2.67l20.24,5.42,3-11.26L90.53,299.9A8.82,8.82,0,0,0,79.73,306.13Z"/><path class="cls-12" d="M79.73,306.13,69.29,345.07a8.82,8.82,0,0,0,6.24,10.8l16.56,4.44a2.66,2.66,0,0,0,3.26-1.88l.38-1.41a2.68,2.68,0,0,0-1.89-3.27L79.93,350a3.77,3.77,0,0,1-2.67-4.63l9.53-35.57a3.77,3.77,0,0,1,4.63-2.67l13.91,3.72a2.65,2.65,0,0,0,3.26-1.88l.38-1.41a2.66,2.66,0,0,0-1.88-3.26L90.53,299.9A8.82,8.82,0,0,0,79.73,306.13Z"/><ellipse class="cls-13" cx="80.83" cy="314.92" rx="7.35" ry="3.34" transform="translate(-244.28 311.48) rotate(-75)"/><ellipse class="cls-13" cx="77.02" cy="329.13" rx="5.1" ry="2.32" transform="translate(-260.82 318.34) rotate(-75)"/><rect class="cls-11" x="93.47" y="305.49" width="124.09" height="98.88" rx="8.08" transform="translate(-227.57 413.29) rotate(-75)"/><rect class="cls-12" x="89.17" y="308.79" width="124.09" height="89.96" rx="8.07" transform="translate(-229.64 408.28) rotate(-75)"/><rect class="cls-13" x="116.37" y="292.46" width="8.91" height="36.28" rx="4.46" transform="translate(157.15 641.89) rotate(-165)"/><rect class="cls-13" x="106.77" y="335.06" width="8.91" height="22.73" rx="4.46" transform="translate(129.01 709.84) rotate(-165)"/><path class="cls-14" d="M126.82,305.45h83.91l-26.51,99a9.71,9.71,0,0,1-11.88,6.86l-59.56-16a9.71,9.71,0,0,1-6.86-11.88Z"/><ellipse class="cls-15" cx="135.72" cy="329.95" rx="14.84" ry="8.41" transform="matrix(0.26, -0.97, 0.97, 0.26, -218.11, 375.65)"/><ellipse class="cls-15" cx="128.31" cy="357.6" rx="9.25" ry="5.24" transform="matrix(0.26, -0.97, 0.97, 0.26, -250.31, 388.99)"/><circle class="cls-16" cx="165.89" cy="309.2" r="5.71"/><circle class="cls-16" cx="155.52" cy="334.93" r="7.39"/><circle class="cls-16" cx="189.34" cy="337.34" r="7.39"/><circle class="cls-16" cx="174.13" cy="354.93" r="4.81"/><circle class="cls-16" cx="171.6" cy="384.46" r="4.81"/><circle class="cls-16" cx="169.33" cy="324.68" r="4.81"/><circle class="cls-16" cx="196.73" cy="308.3" r="4.81"/><circle class="cls-16" cx="158.16" cy="366.59" r="6.19"/><circle class="cls-16" cx="137.13" cy="387.82" r="4.81"/><path class="cls-16" d="M208.67,305.45H126.82A11.18,11.18,0,0,1,142,294.91a11.26,11.26,0,0,1,22.42-.24,17.44,17.44,0,0,1,19.53-1.29,8.71,8.71,0,0,1,17.39.81,8.57,8.57,0,0,1-.4,2.6A8.72,8.72,0,0,1,208.67,305.45Z"/><path class="cls-16" d="M213,370.92h0a8.66,8.66,0,0,1-8.66-8.66l4.36-58.47a4.31,4.31,0,0,1,4.3-4.13h0a4.3,4.3,0,0,1,4.3,4.13l4.37,58.47A8.67,8.67,0,0,1,213,370.92Z"/><rect class="cls-16" x="204.31" y="376.77" width="17.33" height="24.98" rx="8.67"/><path class="cls-16" d="M178.52,260.77h14.19a0,0,0,0,1,0,0v59a6.19,6.19,0,0,1-6.19,6.19H184.7a6.19,6.19,0,0,1-6.19-6.19v-59A0,0,0,0,1,178.52,260.77Z"/></svg>